<?xml version="1.0" standalone="no"?>
<!DOCTYPE svg PUBLIC "-//W3C//DTD SVG 1.1//EN" "http://www.w3.org/Graphics/SVG/1.1/DTD/svg11.dtd" >
<svg xmlns="http://www.w3.org/2000/svg">
<metadata></metadata>
<defs>
<font id="aquaticoregular" horiz-adv-x="1005" >
<font-face units-per-em="2048" ascent="1679" descent="-369" />
<missing-glyph horiz-adv-x="921" />
<glyph horiz-adv-x="0" />
<glyph horiz-adv-x="682" />
<glyph unicode=" "  horiz-adv-x="921" />
<glyph unicode="&#x09;" horiz-adv-x="921" />
<glyph unicode="&#xa0;" horiz-adv-x="921" />
<glyph unicode="!" horiz-adv-x="632" d="M164 160q0 -63 44 -108.5t107 -45.5q64 0 109 45.5t45 108.5t-45 108t-109 45q-63 0 -107 -45t-44 -108zM213 604q0 -42 30 -72t72 -30q43 0 73 29.5t30 72.5v905q0 43 -30 73t-73 30q-41 0 -71.5 -30t-30.5 -73v-905z" />
<glyph unicode="&#x22;" horiz-adv-x="819" d="M150 1176q0 -41 30.5 -72t71.5 -31q42 0 72 30.5t30 72.5v340q0 43 -29.5 72.5t-72.5 29.5q-42 0 -72 -30t-30 -72v-340zM465 1176q0 -42 30 -72.5t72 -30.5t72.5 30.5t30.5 72.5v340q0 43 -30 72.5t-73 29.5t-72.5 -29.5t-29.5 -72.5v-340z" />
<glyph unicode="#" horiz-adv-x="1763" d="M164 487q0 43 29.5 73t72.5 30h168l74 440h-156q-42 0 -72 30.5t-30 72.5q0 43 29.5 72.5t72.5 29.5h189l49 291q8 42 42.5 66.5t76.5 17.5q41 -8 65.5 -42t18.5 -77l-43 -256h401l47 291q8 41 43 66t76 18q41 -8 65.5 -42t18.5 -77l-43 -256h139q42 0 72 -30t30 -72 q0 -41 -30.5 -72t-71.5 -31h-174l-74 -440h162q41 0 71.5 -30t30.5 -73q0 -41 -30.5 -71.5t-71.5 -30.5h-194l-52 -295q-6 -38 -34.5 -62t-65.5 -24q-10 0 -16 2q-41 6 -66 41t-18 76l43 262h-402l-49 -295q-6 -38 -34.5 -62t-65.5 -24q-11 0 -17 2q-41 6 -66 41t-18 76 l43 262h-133q-42 0 -72 30t-30 72zM641 590h401l74 440h-401z" />
<glyph unicode="$" horiz-adv-x="1435" d="M168 310q12 41 49 61t77 8.5t60 -47.5q2 -3 8.5 -10.5t24.5 -22t41 -27.5q79 -44 207 -57v512q-127 33 -225 100q-91 65 -150 162q-55 100 -55 213q0 79 35 154.5t98 132.5q67 60 151 90q61 24 146 31v39q0 43 29.5 72.5t72.5 29.5t73 -29.5t30 -72.5v-50 q72 -12 133.5 -35t97.5 -45t65.5 -50t38 -39.5t15.5 -22.5q20 -38 8 -78.5t-49 -60.5t-76 -9t-61 46q-32 32 -64 49q-53 26 -108 39v-504q195 -57 305 -164q127 -127 127 -317q0 -163 -117 -271q-114 -108 -315 -129v-123q0 -41 -30 -71.5t-73 -30.5q-42 0 -72 30t-30 72 v123q-97 8 -178.5 33t-129 52t-84 59.5t-49 49.5t-18.5 29q-20 38 -8 79zM410 1194q0 -60 34 -113q25 -44 88 -90q46 -29 103 -49v463q-103 -11 -160 -68q-65 -59 -65 -137v-6zM840 215q116 15 176 72q51 46 51 121q0 107 -68 172q-53 53 -159 94v-459z" />
<glyph unicode="%" horiz-adv-x="2037" d="M164 1221q0 -164 102 -281q112 -121 266 -121q156 0 265 121q104 116 104 281q0 164 -104 280q-109 121 -265 121q-154 0 -266 -121q-102 -117 -102 -280zM369 1221q0 82 47.5 139t115.5 57t116 -57t48 -139t-48 -139.5t-116 -57.5t-115.5 57.5t-47.5 139.5zM408.5 89 q6.5 -41 40.5 -66q27 -21 61 -21q52 0 82 43l1026 1403q25 34 18 75.5t-41 67.5q-35 25 -76.5 18.5t-66.5 -40.5l-1024 -1403q-26 -36 -19.5 -77zM1137 395q0 -164 104 -280q109 -121 264 -121t264 121q105 117 105 280q0 164 -105 281q-109 121 -264 121t-264 -121 q-104 -116 -104 -281zM1341 395q0 82 48 139.5t116 57.5t116 -57.5t48 -139.5t-48 -139t-116 -57t-116 57t-48 139z" />
<glyph unicode="&#x26;" horiz-adv-x="1658" d="M164 401q0 -175 110 -288q90 -87 238 -117q74 -14 156 -14h12h6h2q153 0 320 96q76 47 153 115l156 -162q31 -29 72.5 -30t72.5 28q31 31 32 72.5t-30 72.5l-166 172q55 79 68 103l2 2l113 192q20 37 9 78t-48 63q-35 21 -76 10.5t-63 -46.5l-113 -195q-9 -15 -37 -57 l-311 321q144 73 221 135q172 135 172 297q0 187 -152 299q-125 86 -301 86q-90 0 -161 -32q-71 -29 -134 -89q-60 -57 -93.5 -130t-33.5 -148q0 -70 25 -150q34 -109 111 -202q-73 -39 -129 -84q-93 -75 -142 -162q-61 -107 -61 -236zM369 401q0 137 125 238q57 45 149 88 l375 -387q-59 -53 -115 -84q-121 -70 -215 -70h-8q-69 0 -127 11q-90 18 -133 61q-51 51 -51 143zM565 1235q0 70 64 131q67 64 153 64q110 0 183 -50q65 -48 65 -131q0 -60 -94 -137q-71 -55 -197 -119q-7 -3 -20.5 -9.5t-18.5 -8.5l-6 -4l-18 18q-69 69 -94 158 q-17 53 -17 88z" />
<glyph unicode="'" horiz-adv-x="532" d="M164 1167q0 -43 29.5 -72.5t72.5 -29.5q42 0 72.5 30t30.5 72v340q0 42 -30.5 72.5t-72.5 30.5q-43 0 -72.5 -30t-29.5 -73v-340z" />
<glyph unicode="(" horiz-adv-x="1030" d="M164 684q0 -308 149 -557t396 -360q21 -9 43 -9q30 0 55 16.5t37 43.5q18 38 3 78t-54 57q-189 86 -304 278q-120 200 -120 453q0 256 125 459q117 194 311 276q39 17 54.5 56t-1.5 79q-17 39 -56 55t-77 -1q-120 -51 -229 -146q-103 -90 -177 -213q-155 -252 -155 -565z " />
<glyph unicode=")" horiz-adv-x="1032" d="M171 -115.5q-16 -39.5 1 -79.5q17 -39 56 -54.5t79 1.5q119 51 228 146q102 86 178 213q155 257 155 565q0 304 -151 557q-150 251 -395 360q-18 9 -41 9q-30 0 -56.5 -16.5t-38.5 -43.5q-17 -38 -1.5 -78t53.5 -57q186 -83 303 -279q123 -204 123 -452q0 -253 -127 -459 q-120 -198 -310 -276q-40 -17 -56 -56.5z" />
<glyph unicode="*" horiz-adv-x="958" d="M164 1029q0 42 31 73l139 139l-139 141q-29 31 -29 73t29 73q31 29 73.5 29t71.5 -29l139 -142l142 140q31 29 73.5 29t71.5 -29q29 -31 29 -74t-29 -72l-141 -139l139 -141q31 -31 31 -74t-31 -72q-36 -31 -78 -28q-40 0 -68 28l-139 142l-141 -140q-30 -30 -78 -30 q-40 3 -67 30q-29 31 -29 73z" />
<glyph unicode="+" horiz-adv-x="1478" d="M164 780q0 42 30 72.5t72 30.5h371v360q0 43 30.5 73t71.5 30q43 0 73 -30t30 -73v-360h370q42 0 72.5 -30.5t30.5 -72.5q0 -43 -30 -72.5t-73 -29.5h-370v-354q0 -43 -30 -73t-73 -30q-41 0 -71.5 30.5t-30.5 72.5v354h-371q-43 0 -72.5 29.5t-29.5 72.5z" />
<glyph unicode="," horiz-adv-x="532" d="M164 -127q0 -43 29.5 -72.5t72.5 -29.5q42 0 72.5 30t30.5 72v340q0 42 -30.5 72t-72.5 30q-43 0 -72.5 -29.5t-29.5 -72.5v-340z" />
<glyph unicode="-" d="M164 752q0 -42 30 -72.5t72 -30.5h473q42 0 72.5 30.5t30.5 72.5q0 43 -30 72.5t-73 29.5h-473q-43 0 -72.5 -29.5t-29.5 -72.5z" />
<glyph unicode="." horiz-adv-x="632" d="M164 154q0 -65 44.5 -109.5t108.5 -44.5q63 0 107.5 45t44.5 109q0 63 -44.5 108t-107.5 45q-64 0 -108.5 -45t-44.5 -108z" />
<glyph unicode="/" horiz-adv-x="1474" d="M169 -230q14 -40 52 -59q21 -12 45 -12q29 0 53.5 15.5t38.5 41.5l942 1921q19 37 5 77.5t-52 60.5q-38 19 -78 4.5t-59 -52.5l-942 -1919q-19 -38 -5 -78z" />
<glyph unicode="0" horiz-adv-x="1730" d="M164 803q0 -165 51 -315.5t147 -266.5q93 -115 224 -182q137 -70 278 -70q144 0 281 70q130 66 223 182q96 117 147.5 267.5t51.5 314.5q0 162 -51.5 312t-147.5 267q-95 117 -223 183q-129 69 -281 69q-149 0 -278 -69q-130 -66 -224 -183q-96 -116 -147 -265.5 t-51 -313.5zM369 803q0 128 39 244.5t112 205.5q71 85 160 131t184 46q96 0 185.5 -46t158.5 -131q74 -90 114 -206.5t40 -243.5q0 -128 -40 -244.5t-114 -206.5q-69 -86 -158 -132t-186 -46q-95 0 -184.5 46t-159.5 132q-151 183 -151 451z" />
<glyph unicode="1" horiz-adv-x="927" d="M168 1354q10 -32 37.5 -52t60.5 -20q16 0 31 6l262 82v-1268q0 -43 30 -72.5t73 -29.5t72.5 29.5t29.5 72.5v1407q0 52 -41 82q-45 30 -92 15l-395 -123q-40 -12 -60 -50t-8 -79z" />
<glyph unicode="2" horiz-adv-x="1495" d="M166.5 125.5q-7.5 -30.5 3.5 -59.5q12 -30 38 -48t58 -18h963q42 0 72 30t30 72t-30.5 72.5t-71.5 30.5h-699l502 461q161 142 213 288q44 113 25 248q-24 175 -140 291q-65 65 -155 100q-93 38 -209 41q-90 0 -170 -32q-184 -68 -334 -256q-27 -34 -23 -76t37 -70 q34 -26 76 -21t70 38q108 135 233 190q55 23 99 23h2h2q147 -3 229 -82q62 -62 80 -172q11 -83 -12 -152q-36 -95 -160 -207l-698 -639q-23 -22 -30.5 -52.5z" />
<glyph unicode="3" horiz-adv-x="1445" d="M165.5 320.5q-8.5 -41.5 14.5 -76.5q99 -147 266 -215q114 -49 199 -49q7 0 19 -3h24q56 0 124.5 11.5t163 50.5t161.5 100q60 57 100 142q39 85 39 192q0 109 -37 193q-42 89 -102 141q-113 107 -326 143l444 488q21 23 26 53t-7 57q-12 28 -37.5 45t-56.5 17h-863 q-43 0 -72.5 -30t-29.5 -73t29.5 -72.5t72.5 -29.5h631l-434 -477q-21 -23 -25.5 -54.5t9.5 -60.5q13 -28 41 -43t59 -12q108 0 160 -6q159 -22 241 -97q72 -66 72 -182q0 -112 -76 -182q-67 -64 -180 -90q-72 -19 -137 -19q-4 0 -12.5 1t-12.5 1q-57 2 -127 33 q-111 45 -176 141q-23 35 -64.5 43.5t-76.5 -14.5q-35 -25 -43.5 -66.5z" />
<glyph unicode="4" horiz-adv-x="1691" d="M174 432q12 -26 37.5 -42.5t54.5 -16.5h801v-279q0 -41 30.5 -71.5t71.5 -30.5q43 0 73 30t30 72v279h153q41 0 72 30.5t31 71.5q0 42 -30.5 72.5t-72.5 30.5h-153v935q0 32 -18.5 59.5t-47.5 37.5q-30 11 -61 3t-51 -32l-906 -1038q-42 -53 -14 -111zM492 578l575 663 v-663h-575z" />
<glyph unicode="5" horiz-adv-x="1452" d="M164.5 226q6.5 -41 40.5 -68q133 -93 248 -135q124 -45 237 -48h23q94 0 192 29q103 36 178 94q132 102 183 256q50 162 -13 320q-47 112 -123 188q-70 70 -163 111q-185 74 -437 24q-43 -9 -59 -14l29 422h684q43 0 72.5 29.5t29.5 72.5t-29.5 73t-72.5 30h-781 q-40 0 -69.5 -28t-32.5 -69l-45 -667q-3 -58 43 -90q48 -33 100 -11q74 32 170 52q190 39 320 -15q120 -49 174 -184q35 -89 6 -182q-28 -92 -111 -156q-113 -86 -262 -80q-183 6 -368 144q-35 25 -77 18t-67 -41q-26 -34 -19.5 -75z" />
<glyph unicode="6" horiz-adv-x="1529" d="M165.5 710.5q-8.5 170.5 16.5 290.5q63 301 260 474q199 171 469 159q107 -5 201 -50.5t152 -121.5q26 -34 20.5 -75.5t-39.5 -67.5t-75.5 -21t-67.5 39q-34 44 -90 67.5t-111 25.5q-187 9 -326 -111q-145 -126 -192 -358q-9 -37 -12 -89l8 9q168 151 407 151 q114 0 219.5 -39t186.5 -112q77 -69 127 -170q47 -103 47 -211q0 -111 -47 -211q-50 -101 -127 -170q-82 -74 -187 -114t-219 -40q-115 0 -220 40t-187 114q-80 74 -127 170q-33 73 -41 139q-37 112 -45.5 282.5zM410 500q0 -19 2 -27q4 -16 4 -27q22 -118 127 -197t243 -79 q155 0 265 96.5t110 233.5q0 135 -110 231t-265 96q-156 0 -266 -96t-110 -231z" />
<glyph unicode="7" horiz-adv-x="1454" d="M164 1507q0 -42 30 -72t72 -30h754l-651 -1253q-20 -37 -7.5 -78t50.5 -60q21 -12 47 -12q62 0 90 55l731 1403q25 51 -4 101q-28 49 -88 49h-922q-43 0 -72.5 -30t-29.5 -73z" />
<glyph unicode="8" horiz-adv-x="1542" d="M164 463q0 110 51 199q50 90 137 153q28 22 60 41l-13 8q-76 61 -120 142q-48 88 -48 182t48 182q44 81 120 139q157 123 375 123q219 0 373 -123q79 -58 123 -139q47 -86 47 -182t-47 -182q-44 -81 -123 -142q-6 -6 -14 -10q30 -18 57 -39q86 -65 135 -153 q53 -92 53 -199q0 -104 -53 -199q-49 -86 -135 -153q-179 -134 -420 -134q-242 0 -418 134q-87 66 -137 153q-51 92 -51 199zM369 463q0 -109 106 -189q122 -92 295 -92t295 92q109 83 109 189q0 109 -109 188q-122 92 -295 92t-295 -92q-106 -77 -106 -188zM436 1188 q0 -91 90 -162q101 -78 248 -78t248 78q90 71 90 162q0 89 -90 160q-102 79 -248 79t-248 -79q-90 -71 -90 -160z" />
<glyph unicode="9" horiz-adv-x="1529" d="M164 1104q0 108 47 211q50 103 127 168q167 153 407 153q239 0 406 -153q77 -65 127 -168q32 -71 43 -141q35 -111 43.5 -282.5t-16.5 -291.5q-59 -299 -261 -473q-200 -172 -469 -160q-105 4 -199 50.5t-153 121.5q-26 34 -20.5 76.5t39.5 67.5q34 26 75.5 20.5 t67.5 -39.5q34 -44 89 -66.5t112 -25.5q186 -9 325 111q145 126 195 360q8 48 10 86l-8 -6q-82 -74 -187 -114t-219 -40q-115 0 -220 40t-187 114q-77 65 -127 168q-47 103 -47 213zM369 1104q0 -137 110 -233.5t266 -96.5q155 0 265 96.5t110 233.5q0 16 -2 24q-2 10 -2 29 q-23 118 -128.5 196.5t-242.5 78.5q-156 0 -266 -96.5t-110 -231.5z" />
<glyph unicode=":" horiz-adv-x="624" d="M164 201q0 -62 43 -105t104 -43q62 0 106 43.5t44 104.5t-44 105t-106 44q-61 0 -104 -43.5t-43 -105.5zM164 1026q0 -62 43 -104.5t104 -42.5q62 0 106 43t44 104q0 62 -44.5 106t-105.5 44t-104 -44t-43 -106z" />
<glyph unicode=";" horiz-adv-x="624" d="M164 995q0 -61 44 -105t105 -44t104.5 43.5t43.5 105.5q0 61 -43.5 104.5t-104.5 43.5q-62 0 -105.5 -43.5t-43.5 -104.5zM211 -135q0 -43 29.5 -73t72.5 -30q42 0 72.5 30.5t30.5 72.5v325q0 42 -30.5 72.5t-72.5 30.5q-43 0 -72.5 -30t-29.5 -73v-325z" />
<glyph unicode="&#x3c;" horiz-adv-x="1474" d="M164 608q0 -29 15.5 -53.5t41.5 -38.5l932 -465q38 -19 78 -5t59 52t5.5 78.5t-50.5 59.5l-747 372l755 373q38 19 52 59t-5 78q-28 58 -92 58q-19 0 -45 -11l-942 -465q-26 -12 -41.5 -37t-15.5 -55z" />
<glyph unicode="=" horiz-adv-x="1396" d="M164 494q0 -41 30.5 -72t71.5 -31h864q42 0 72.5 30.5t30.5 72.5q0 43 -30 72.5t-73 29.5h-864q-42 0 -72 -30t-30 -72zM164 1030q0 -41 30.5 -71.5t71.5 -30.5h864q42 0 72.5 30t30.5 72q0 43 -30 73t-73 30h-864q-42 0 -72 -30.5t-30 -72.5z" />
<glyph unicode="&#x3e;" horiz-adv-x="1474" d="M169.5 180.5q-13.5 -40.5 6.5 -78.5q12 -27 36.5 -42t53.5 -15q22 0 45 10l942 465q26 12 42 37.5t16 54.5t-16 54t-42 39l-929 464q-38 19 -79 5t-61 -52q-19 -38 -5 -78t52 -59l748 -373l-758 -372q-38 -19 -51.5 -59.5z" />
<glyph unicode="?" horiz-adv-x="1314" d="M165 1344.5q1 -41.5 32 -70.5t73.5 -28t71.5 32q50 54 118.5 88t103 41.5t48.5 7.5q2 0 4 2q7 1 18.5 1.5t44.5 -1.5t63.5 -7.5t67.5 -21t64 -38.5q69 -60 72 -172q6 -111 -57 -174q-53 -53 -142.5 -72t-156.5 -17q-47 3 -78 -28t-31 -78l13 -295q1 -41 31.5 -69.5 t70.5 -28.5h4q42 1 71 32.5t27 73.5l-8 193l49 6q183 30 293 137q62 59 92 139q33 90 27 189q-3 107 -43 188q-38 78 -100 131q-110 93 -273 111q-90 12 -141 4q-92 -15 -137 -31q-160 -59 -264 -172q-29 -31 -28 -72.5zM455 147q0 -61 43.5 -105t105.5 -44t106 44t44 105 t-44 105.5t-106 44.5q-61 0 -105 -44t-44 -106z" />
<glyph unicode="@" horiz-adv-x="2172" d="M164 711q0 187 74 358q66 163 196 293q128 128 293 199q174 71 360 71q188 0 359 -71q168 -71 293 -199q126 -123 198 -293q72 -173 72 -358q0 -109 -20 -203q-27 -124 -123 -207q-81 -75 -203 -94q-116 -15 -221 31q-62 30 -111 79q-113 -69 -244 -69q-192 0 -327 135 t-135 328q0 192 135 327q139 136 327 136q189 0 328 -136q135 -138 135 -327q0 -135 -73 -250q15 -17 51 -37q48 -20 106 -14q59 10 97 45q46 39 57 98q16 82 16 158q0 143 -54 274t-155 234q-102 101 -233.5 154.5t-274.5 53.5q-145 0 -275.5 -53.5t-231.5 -154.5 q-102 -103 -156.5 -234.5t-54.5 -273.5q0 -144 54.5 -275t156.5 -233t232.5 -156.5t274.5 -54.5q118 0 228 37q40 13 77.5 -5.5t51.5 -58.5q14 -41 -5.5 -79.5t-60.5 -51.5q-139 -47 -291 -47q-186 0 -360 74q-160 66 -293 196q-130 133 -196 293q-74 174 -74 361zM829 711 q0 -107 75.5 -182.5t182.5 -75.5q106 0 182.5 75.5t76.5 182.5q0 106 -76.5 182t-182.5 76q-107 0 -182.5 -76t-75.5 -182z" />
<glyph unicode="A" horiz-adv-x="1880" d="M156 78q9 -36 39 -58q26 -20 61 -20q41 0 70 29q10 10 45.5 40t126.5 94t184 113q183 96 350 125q77 14 150 14q99 0 190 -26l160 -330q18 -37 58 -51q16 -6 33 -6q23 0 46 12q38 19 52 59q6 17 6 33q0 22 -11 44l-686 1402q-12 26 -37.5 42t-54.5 16q-62 0 -92 -58 l-682 -1405q-11 -22 -11 -45q0 -12 3 -24zM526 424l412 850l322 -658q-37 3 -77 3q-90 0 -190 -17q-210 -39 -409 -147q-22 -11 -58 -31z" />
<glyph unicode="B" horiz-adv-x="1617" d="M164 104v1403q0 43 30 73t72 30h625q156 0 254 -49q187 -89 215 -320q6 -41 5 -81q0 -66 -15 -126q-20 -79 -76 -151q-15 -15 -21 -23q45 -26 82 -63q68 -71 97 -162q22 -73 23 -166q0 -29 -3 -59q-12 -119 -61 -207q-51 -82 -127 -129q-116 -72 -279 -72h-719 q-42 0 -71 29q-31 34 -31 73zM369 207h616q108 0 170 41q80 48 92 180q3 26 3 49q0 113 -60 176q-50 50 -141 68q-34 6 -82 6h-6l-340 -2h-3q-41 0 -70.5 30t-31.5 72q0 43 30 73t72 30l336 2q17 2 38.5 7t60 25t63.5 50q44 57 44 150q0 25 -3 53q-12 100 -74 144t-192 44 h-522v-1198z" />
<glyph unicode="C" horiz-adv-x="1738" d="M164 809q0 -175 65 -322q66 -154 181 -266q113 -113 266 -180q157 -68 330 -68q146 0 288 54q134 50 244 141q32 26 36 68v11q0 36 -24 64q-28 33 -70 37q-6 1 -11 0q-35 0 -62 -24q-87 -71 -184 -107q-109 -39 -217 -39q-127 0 -243.5 49t-207.5 140q-86 83 -137 200 q-49 116 -49 242q0 129 49 242q48 111 137 200q87 87 205 138q119 49 250 49q211 0 376 -127q26 -20 60 -20q7 1 15 1q43 6 69 39q20 27 20 60q0 8 -1 16q-6 42 -40 68q-215 167 -499 167q-171 0 -328 -65q-158 -68 -270 -180q-117 -114 -183 -264q-65 -154 -65 -324z" />
<glyph unicode="D" horiz-adv-x="1767" d="M164 102q0 -42 30 -72t72 -30h502h2q165 0 322 63q151 63 264 173q114 108 180 256q68 148 68 311q0 160 -66 313q-66 147 -178 256q-114 111 -264 174q-156 64 -322 64h-508q-40 0 -71 -31q-31 -28 -31 -72v-1405zM369 205v1200h405q260 0 443 -180q87 -84 133 -191 q49 -110 49 -231t-49 -228q-50 -109 -136 -192q-85 -82 -200 -129q-113 -46 -240 -49h-405z" />
<glyph unicode="E" horiz-adv-x="1511" d="M164 104v1403q0 43 30 73t72 30h959q43 0 72.5 -30t29.5 -73t-29.5 -72.5t-72.5 -29.5h-856v-494h757q42 0 72.5 -30.5t30.5 -71.5q0 -43 -30 -72.5t-73 -29.5h-757v-500h876q43 0 73 -30t30 -73t-30 -72.5t-73 -29.5h-979q-42 0 -72 30t-30 72z" />
<glyph unicode="F" horiz-adv-x="1495" d="M164 98v1407q0 42 30 72.5t72 30.5h963q42 0 72 -30.5t30 -72.5q0 -43 -29.5 -72.5t-72.5 -29.5h-860v-514h735q41 0 71.5 -31t30.5 -72q0 -42 -30 -72t-72 -30h-735v-586q0 -42 -30.5 -72t-72.5 -30t-72 30t-30 72z" />
<glyph unicode="G" horiz-adv-x="1810" d="M164 799q0 -174 65 -324q67 -153 181 -264q119 -119 268 -180q154 -68 328 -68q182 0 342 74q150 68 272 199q27 30 27 67v469q0 43 -30 72.5t-73 29.5t-72.5 -29.5t-29.5 -72.5v-426q-74 -74 -178 -123q-119 -55 -258 -55q-127 0 -243.5 48.5t-207.5 139.5 q-86 83 -137 201q-49 113 -49 242q0 125 49 241q48 110 139 201q88 88 203 135q117 51 250 51q202 0 358 -114q27 -19 58 -19q9 0 18 2q42 7 67 41q20 27 20 59q0 9 -2 18q-7 42 -42 67q-214 151 -477 151q-171 0 -328 -65q-156 -67 -270 -181q-117 -114 -183 -264 q-65 -154 -65 -323z" />
<glyph unicode="H" horiz-adv-x="1619" d="M164 106v1405q0 43 29.5 73t72.5 30t73 -30t30 -73v-585h882v585q0 42 30.5 72.5t72.5 30.5q43 0 72.5 -30t29.5 -73v-1405q0 -42 -30 -72t-72 -30q-41 0 -72 30.5t-31 71.5v615h-882v-615q0 -42 -30.5 -72t-72.5 -30t-72 30t-30 72z" />
<glyph unicode="I" horiz-adv-x="532" d="M164 102q0 -42 30 -72t72 -30q43 0 73 29.5t30 72.5v1405q0 42 -30.5 72.5t-72.5 30.5q-41 0 -71.5 -31t-30.5 -72v-1405z" />
<glyph unicode="J" horiz-adv-x="1239" d="M157 266q-4 -14 -4 -27q0 -26 15 -51q88 -145 278 -192q81 -19 154 -19h12q121 0 211 37q87 37 144 99q108 116 108 303v1091q0 43 -30.5 73t-71.5 30q-43 0 -73 -30t-30 -73v-1093v-8q0 -97 -53 -156q-65 -68 -207 -68h-4q-59 0 -114 15q-103 27 -148 96q-22 37 -63 48 q-14 4 -27 4q-26 0 -49 -15q-37 -23 -48 -64z" />
<glyph unicode="K" horiz-adv-x="1626" d="M164 111q0 -43 29.5 -73t72.5 -30t73 30t30 73v1405q0 42 -30.5 72t-72.5 30t-72 -30t-30 -72v-1405zM436 807q6 -53 51 -78q11 -5 44.5 -25t106.5 -71t144 -110t149.5 -145.5t129.5 -174.5q78 -135 192 -174q53 -19 93 -19q8 0 18 1t12 1q42 6 66 42q20 29 19 61 q0 8 -1 16q-8 40 -40 64q-28 21 -62 21q-6 0 -12 -1q-8 0 -19.5 3.5t-38 25.5t-49.5 61q-51 89 -122 173.5t-147 152.5t-138.5 116.5t-126.5 90.5l630 604q32 30 32 73q0 40 -28 70q-29 31 -71 32h-3q-41 0 -71 -28l-727 -696q-33 -30 -33 -68q0 -9 2 -18z" />
<glyph unicode="L" horiz-adv-x="1425" d="M164 102q0 -42 30 -72t72 -30h893q43 0 73 29.5t30 72.5t-30 73t-73 30h-790v1302q0 43 -30 73t-73 30q-42 0 -72 -30t-30 -73v-1405z" />
<glyph unicode="M" horiz-adv-x="1910" d="M164 111q0 -41 30.5 -72t71.5 -31q42 0 72.5 30.5t30.5 72.5v1091l503 -690q30 -41 84 -41q55 0 82 41l504 690v-1091q0 -41 31 -72t72 -31q42 0 72 30.5t30 72.5v1405q0 33 -19.5 60t-50.5 38q-16 5 -31.5 5t-31.5 -5q-30 -10 -51 -37l-607 -832l-606 832q-20 27 -52 37 q-16 5 -31.5 5t-30.5 -5q-32 -11 -52 -37.5t-20 -60.5v-1405z" />
<glyph unicode="N" horiz-adv-x="1703" d="M164 98q0 -43 29.5 -72.5t72.5 -29.5t73 29.5t30 72.5v1123l989 -1190q32 -37 80 -37q17 0 35 6q30 12 48.5 38t18.5 58v1405q0 43 -30 73t-72 30q-43 0 -73 -30t-30 -73v-1120l-991 1188q-20 25 -51 33q-13 3 -26 3l-36 -6q-30 -10 -48.5 -36.5t-18.5 -59.5v-1405z" />
<glyph unicode="O" horiz-adv-x="1980" d="M154 801q0 -168 65 -322q63 -145 180 -266q113 -113 269 -180q157 -68 327 -68q169 0 321 64t271 184q113 113 176 266q64 149 64 322q0 169 -64 321q-65 155 -174 264q-117 120 -269 184t-319 64q-172 0 -329 -65q-156 -67 -269 -180q-115 -112 -182 -265 q-67 -152 -67 -323zM358 801q0 128 52 241q46 113 137 201q87 87 205 137q121 50 249 50q126 0 240.5 -48t202.5 -139q86 -88 132 -202t46 -240t-47 -244q-52 -120 -133 -201q-90 -90 -205 -138t-242 -48t-243 48.5t-207 139.5q-86 83 -137 201q-50 118 -50 242z" />
<glyph unicode="P" horiz-adv-x="1538" d="M164 102q0 -42 30 -72t72 -30q43 0 73 29.5t30 72.5v1303h505q79 0 156 -45q62 -36 94 -94q45 -79 45 -201q0 -177 -133 -252q-118 -68 -338 -68q-42 0 -72 -30t-30 -72t30 -72t72 -30q275 0 441 94q235 134 235 430q0 132 -41 238q-37 95 -106 163q-95 92 -232 127 q-67 17 -121 17h-608q-42 0 -72 -30t-30 -73v-1405z" />
<glyph unicode="Q" horiz-adv-x="2000" d="M174 680q-11 69 -11 135q0 100 25 195q41 167 142 297q100 131 241 213q144 84 306 108q66 11 132 11q100 0 201 -25q163 -41 295 -140t217 -243q85 -148 105 -299q10 -65 10 -128q0 -102 -25 -200q-46 -167 -141 -297q-93 -127 -235 -215q-26 -17 -62 -33 q116 -108 164 -290q4 -15 4 -29q0 -25 -14 -48q-21 -37 -62 -48q-14 -5 -28 -5q-11 0 -23 3q-59 17 -74 73q-45 160 -141 222q-51 36 -90 36h2v4q-52 -6 -103 -6q-103 0 -206 25q-163 40 -303 143q-130 100 -215 240q-87 144 -111 301zM377 713q18 -121 84 -228 q66 -110 167 -184.5t224 -105.5q76 -19 153 -19q47 0 93 7q124 19 231 85q102 60 178 162q78 109 107 223q19 78 19 155q0 45 -7 90q-17 123 -80 230q-63 108 -162.5 182t-222.5 105q-79 19 -159 19l-95 -7q-127 -22 -231 -84q-108 -62 -182 -161q-81 -105 -107 -221 q-18 -75 -18 -149q0 -50 8 -99z" />
<glyph unicode="R" horiz-adv-x="1644" d="M164 102q0 -42 30 -72t72 -30t72.5 30t30.5 72v1303h505q78 0 154 -43q60 -37 94 -94q45 -77 45 -203q0 -178 -131 -252q-121 -68 -338 -68q-40 0 -69.5 -26.5t-32.5 -65.5q-1 -7 -1 -14q-1 -31 19 -57q24 -32 64 -39q3 0 18.5 -5t47 -20.5t63.5 -36.5q154 -100 262 -284 q75 -132 199 -177q51 -16 94 -16q16 0 31 2q41 6 67 41q21 28 20 61q0 8 -1 15q-5 41 -39 66q-28 21 -62 21q-7 0 -14 -1q-66 0 -119 90q-92 165 -231 285q57 15 123 51q115 66 175 175.5t60 254.5q0 139 -41 238q-39 99 -106 163q-92 92 -230 127q-67 17 -121 17h-608 q-43 0 -72.5 -30t-29.5 -73v-1405z" />
<glyph unicode="S" horiz-adv-x="1478" d="M168 287q-4 -15 -4 -30q0 -25 12 -48q5 -10 13 -21.5t31.5 -35.5t51.5 -45.5t76 -47t104 -43t136.5 -29.5t171.5 -12q289 0 434 136q121 115 121 278q0 198 -133 328q-139 136 -432 194q-127 27 -207 80q-60 40 -94 94q-37 59 -37 119v4q0 83 69 146q81 73 219 73 q177 0 285 -55q38 -23 68 -53q20 -35 60 -46q14 -4 28 -4q25 0 49 13q37 20 48 61q4 15 4 29q0 26 -13 49q-7 13 -21 31.5t-56 52.5t-96.5 60t-149 46.5t-206.5 20.5q-110 0 -198 -33q-96 -37 -156 -92q-66 -59 -102.5 -136t-36.5 -159q0 -117 59 -219q55 -99 154 -166 q114 -77 289 -116q233 -46 329 -142q72 -69 72 -180q0 -77 -55 -127q-88 -82 -295 -82q-202 0 -328 68q-13 7 -24 14.5t-19 13.5t-14.5 12t-10 10t-6.5 8l-4 3q-20 35 -60 47q-15 4 -29 5q-25 0 -48 -13q-37 -20 -49 -61z" />
<glyph unicode="T" horiz-adv-x="1636" d="M164 1507q0 43 29.5 73t72.5 30h1104q43 0 73 -30t30 -73t-30 -72.5t-73 -29.5h-448v-1303q0 -42 -30.5 -72t-72.5 -30q-43 0 -72.5 29.5t-29.5 72.5v1303h-451q-43 0 -72.5 29.5t-29.5 72.5z" />
<glyph unicode="U" horiz-adv-x="1681" d="M164 653q0 -214 84 -370q77 -139 211 -215q159 -93 383 -93q102 0 189.5 19t149.5 48.5t113 71.5t83 82.5t57 86.5q84 154 84 370v854q0 42 -30.5 72.5t-72.5 30.5q-41 0 -71.5 -31t-30.5 -72v-854q0 -161 -60 -274q-46 -84 -131 -135q-112 -64 -280 -64q-169 0 -281 64 q-83 48 -133 137q-59 109 -59 272v854q0 42 -30.5 72.5t-72.5 30.5q-41 0 -71.5 -31t-30.5 -72v-854z" />
<glyph unicode="V" horiz-adv-x="1705" d="M172 1477l586 -1418q12 -29 38 -46t58 -17q31 0 56.5 17t37.5 46l586 1418q9 20 9 39t-8 38q-16 39 -56 56q-19 8 -38.5 8t-39.5 -8q-40 -17 -55 -56l-492 -1187l-492 1187q-18 39 -57 56q-20 8 -39 8l-39 -8q-38 -17 -54 -56q-8 -20 -8 -40q0 -19 7 -37z" />
<glyph unicode="W" horiz-adv-x="2600" d="M170 1479l518 -1418q10 -30 36.5 -48.5t59.5 -18.5q32 0 58.5 18t38.5 49l419 1153l422 -1153q10 -30 37 -48.5t60 -18.5t59.5 18.5t36.5 48.5l516 1418q7 18 7 36q0 21 -10 42q-18 38 -58 53q-18 6 -35 6q-21 0 -43 -10q-38 -18 -54 -58l-419 -1153l-422 1153 q-10 31 -37 49.5t-60 18.5q-32 0 -59 -18.5t-37 -49.5l-420 -1153l-422 1153q-15 40 -53 58q-21 10 -43 10q-17 0 -35 -6q-40 -15 -58 -53q-10 -21 -10 -42q0 -18 7 -36z" />
<glyph unicode="X" horiz-adv-x="1572" d="M165 85q-1 9 -1 18q0 32 20 59l478 661l-451 623q-21 28 -21 60q0 8 2 16q6 42 41 67q27 20 59 20q8 1 17 -1q42 -6 68 -41l411 -570l410 570q24 35 66 41q9 1 17 1q32 0 60 -20q34 -25 41 -67q2 -9 2 -17q0 -31 -20 -59l-451 -623l478 -661q20 -27 20 -59q0 -9 -2 -18 q-7 -42 -41 -67q-27 -18 -61 -18q-52 0 -82 41l-437 606l-438 -606q-30 -41 -84 -41q-32 0 -59 18q-35 25 -42 67z" />
<glyph unicode="Y" horiz-adv-x="1632" d="M166 1526q8 42 43 67q26 17 56 17q10 0 21 -2q41 -8 64 -43l465 -699l467 699q23 35 64 43q11 2 21 2q30 0 56 -17q35 -25 43 -67q3 -11 3 -21q0 -29 -17 -55l-534 -799v-549q0 -42 -30 -72t-73 -30q-41 0 -71.5 30.5t-30.5 71.5v549l-533 799q-17 26 -17 55q0 10 3 21z " />
<glyph unicode="Z" horiz-adv-x="1646" d="M172 61q29 -59 92 -59h1116q41 0 72 30.5t31 71.5q0 42 -30.5 72.5t-72.5 30.5h-903l983 1237q23 29 23 62q0 22 -10 46q-14 26 -39 42t-54 16h-1083q-41 0 -71.5 -30t-30.5 -73q0 -42 30 -72t72 -30h870l-983 -1235q-23 -29 -23 -62q0 -22 11 -47z" />
<glyph unicode="^" horiz-adv-x="1075" d="M164.5 1212q2.5 -42 34.5 -71q30 -27 67 -27q48 0 78 35l193 217l196 -217q27 -32 70.5 -34t73.5 26q32 29 34 71t-26 74l-271 301q-30 35 -77 35q-46 0 -76 -35l-271 -301q-28 -32 -25.5 -74z" />
<glyph unicode="_" horiz-adv-x="1591" d="M102 -266q0 -43 30 -73t73 -30h1181q42 0 72.5 30.5t30.5 72.5t-30.5 72t-72.5 30h-1181q-43 0 -73 -29.5t-30 -72.5z" />
<glyph unicode="a" horiz-adv-x="1880" d="M156 78q9 -36 39 -58q26 -20 61 -20q41 0 70 29q10 10 45.5 40t126.5 94t184 113q183 96 350 125q77 14 150 14q99 0 190 -26l160 -330q18 -37 58 -51q16 -6 33 -6q23 0 46 12q38 19 52 59q6 17 6 33q0 22 -11 44l-686 1402q-12 26 -37.5 42t-54.5 16q-62 0 -92 -58 l-682 -1405q-11 -22 -11 -45q0 -12 3 -24zM526 424l412 850l322 -658q-37 3 -77 3q-90 0 -190 -17q-210 -39 -409 -147q-22 -11 -58 -31z" />
<glyph unicode="b" horiz-adv-x="1617" d="M164 104v1403q0 43 30 73t72 30h625q156 0 254 -49q187 -89 215 -320q6 -41 5 -81q0 -66 -15 -126q-20 -79 -76 -151q-15 -15 -21 -23q45 -26 82 -63q68 -71 97 -162q22 -73 23 -166q0 -29 -3 -59q-12 -119 -61 -207q-51 -82 -127 -129q-116 -72 -279 -72h-719 q-42 0 -71 29q-31 34 -31 73zM369 207h616q108 0 170 41q80 48 92 180q3 26 3 49q0 113 -60 176q-50 50 -141 68q-34 6 -82 6h-6l-340 -2h-3q-41 0 -70.5 30t-31.5 72q0 43 30 73t72 30l336 2q17 2 38.5 7t60 25t63.5 50q44 57 44 150q0 25 -3 53q-12 100 -74 144t-192 44 h-522v-1198z" />
<glyph unicode="c" horiz-adv-x="1738" d="M164 809q0 -175 65 -322q66 -154 181 -266q113 -113 266 -180q157 -68 330 -68q146 0 288 54q134 50 244 141q32 26 36 68v11q0 36 -24 64q-28 33 -70 37q-6 1 -11 0q-35 0 -62 -24q-87 -71 -184 -107q-109 -39 -217 -39q-127 0 -243.5 49t-207.5 140q-86 83 -137 200 q-49 116 -49 242q0 129 49 242q48 111 137 200q87 87 205 138q119 49 250 49q211 0 376 -127q26 -20 60 -20q7 1 15 1q43 6 69 39q20 27 20 60q0 8 -1 16q-6 42 -40 68q-215 167 -499 167q-171 0 -328 -65q-158 -68 -270 -180q-117 -114 -183 -264q-65 -154 -65 -324z" />
<glyph unicode="d" horiz-adv-x="1767" d="M164 102q0 -42 30 -72t72 -30h502h2q165 0 322 63q151 63 264 173q114 108 180 256q68 148 68 311q0 160 -66 313q-66 147 -178 256q-114 111 -264 174q-156 64 -322 64h-508q-40 0 -71 -31q-31 -28 -31 -72v-1405zM369 205v1200h405q260 0 443 -180q87 -84 133 -191 q49 -110 49 -231t-49 -228q-50 -109 -136 -192q-85 -82 -200 -129q-113 -46 -240 -49h-405z" />
<glyph unicode="e" horiz-adv-x="1511" d="M164 104v1403q0 43 30 73t72 30h959q43 0 72.5 -30t29.5 -73t-29.5 -72.5t-72.5 -29.5h-856v-494h757q42 0 72.5 -30.5t30.5 -71.5q0 -43 -30 -72.5t-73 -29.5h-757v-500h876q43 0 73 -30t30 -73t-30 -72.5t-73 -29.5h-979q-42 0 -72 30t-30 72z" />
<glyph unicode="f" horiz-adv-x="1495" d="M164 98v1407q0 42 30 72.5t72 30.5h963q42 0 72 -30.5t30 -72.5q0 -43 -29.5 -72.5t-72.5 -29.5h-860v-514h735q41 0 71.5 -31t30.5 -72q0 -42 -30 -72t-72 -30h-735v-586q0 -42 -30.5 -72t-72.5 -30t-72 30t-30 72z" />
<glyph unicode="g" horiz-adv-x="1810" d="M164 799q0 -174 65 -324q67 -153 181 -264q119 -119 268 -180q154 -68 328 -68q182 0 342 74q150 68 272 199q27 30 27 67v469q0 43 -30 72.5t-73 29.5t-72.5 -29.5t-29.5 -72.5v-426q-74 -74 -178 -123q-119 -55 -258 -55q-127 0 -243.5 48.5t-207.5 139.5 q-86 83 -137 201q-49 113 -49 242q0 125 49 241q48 110 139 201q88 88 203 135q117 51 250 51q202 0 358 -114q27 -19 58 -19q9 0 18 2q42 7 67 41q20 27 20 59q0 9 -2 18q-7 42 -42 67q-214 151 -477 151q-171 0 -328 -65q-156 -67 -270 -181q-117 -114 -183 -264 q-65 -154 -65 -323z" />
<glyph unicode="h" horiz-adv-x="1619" d="M164 106v1405q0 43 29.5 73t72.5 30t73 -30t30 -73v-585h882v585q0 42 30.5 72.5t72.5 30.5q43 0 72.5 -30t29.5 -73v-1405q0 -42 -30 -72t-72 -30q-41 0 -72 30.5t-31 71.5v615h-882v-615q0 -42 -30.5 -72t-72.5 -30t-72 30t-30 72z" />
<glyph unicode="i" horiz-adv-x="532" d="M164 102q0 -42 30 -72t72 -30q43 0 73 29.5t30 72.5v1405q0 42 -30.5 72.5t-72.5 30.5q-41 0 -71.5 -31t-30.5 -72v-1405z" />
<glyph unicode="j" horiz-adv-x="1239" d="M157 266q-4 -14 -4 -27q0 -26 15 -51q88 -145 278 -192q81 -19 154 -19h12q121 0 211 37q87 37 144 99q108 116 108 303v1091q0 43 -30.5 73t-71.5 30q-43 0 -73 -30t-30 -73v-1093v-8q0 -97 -53 -156q-65 -68 -207 -68h-4q-59 0 -114 15q-103 27 -148 96q-22 37 -63 48 q-14 4 -27 4q-26 0 -49 -15q-37 -23 -48 -64z" />
<glyph unicode="k" horiz-adv-x="1626" d="M164 111q0 -43 29.5 -73t72.5 -30t73 30t30 73v1405q0 42 -30.5 72t-72.5 30t-72 -30t-30 -72v-1405zM436 807q6 -53 51 -78q11 -5 44.5 -25t106.5 -71t144 -110t149.5 -145.5t129.5 -174.5q78 -135 192 -174q53 -19 93 -19q8 0 18 1t12 1q42 6 66 42q20 29 19 61 q0 8 -1 16q-8 40 -40 64q-28 21 -62 21q-6 0 -12 -1q-8 0 -19.5 3.5t-38 25.5t-49.5 61q-51 89 -122 173.5t-147 152.5t-138.5 116.5t-126.5 90.5l630 604q32 30 32 73q0 40 -28 70q-29 31 -71 32h-3q-41 0 -71 -28l-727 -696q-33 -30 -33 -68q0 -9 2 -18z" />
<glyph unicode="l" horiz-adv-x="1425" d="M164 102q0 -42 30 -72t72 -30h893q43 0 73 29.5t30 72.5t-30 73t-73 30h-790v1302q0 43 -30 73t-73 30q-42 0 -72 -30t-30 -73v-1405z" />
<glyph unicode="m" horiz-adv-x="1910" d="M164 111q0 -41 30.5 -72t71.5 -31q42 0 72.5 30.5t30.5 72.5v1091l503 -690q30 -41 84 -41q55 0 82 41l504 690v-1091q0 -41 31 -72t72 -31q42 0 72 30.5t30 72.5v1405q0 33 -19.5 60t-50.5 38q-16 5 -31.5 5t-31.5 -5q-30 -10 -51 -37l-607 -832l-606 832q-20 27 -52 37 q-16 5 -31.5 5t-30.5 -5q-32 -11 -52 -37.5t-20 -60.5v-1405z" />
<glyph unicode="n" horiz-adv-x="1703" d="M164 98q0 -43 29.5 -72.5t72.5 -29.5t73 29.5t30 72.5v1123l989 -1190q32 -37 80 -37q17 0 35 6q30 12 48.5 38t18.5 58v1405q0 43 -30 73t-72 30q-43 0 -73 -30t-30 -73v-1120l-991 1188q-20 25 -51 33q-13 3 -26 3l-36 -6q-30 -10 -48.5 -36.5t-18.5 -59.5v-1405z" />
<glyph unicode="o" horiz-adv-x="1980" d="M154 801q0 -168 65 -322q63 -145 180 -266q113 -113 269 -180q157 -68 327 -68q169 0 321 64t271 184q113 113 176 266q64 149 64 322q0 169 -64 321q-65 155 -174 264q-117 120 -269 184t-319 64q-172 0 -329 -65q-156 -67 -269 -180q-115 -112 -182 -265 q-67 -152 -67 -323zM358 801q0 128 52 241q46 113 137 201q87 87 205 137q121 50 249 50q126 0 240.5 -48t202.5 -139q86 -88 132 -202t46 -240t-47 -244q-52 -120 -133 -201q-90 -90 -205 -138t-242 -48t-243 48.5t-207 139.5q-86 83 -137 201q-50 118 -50 242z" />
<glyph unicode="p" horiz-adv-x="1538" d="M164 102q0 -42 30 -72t72 -30q43 0 73 29.5t30 72.5v1303h505q79 0 156 -45q62 -36 94 -94q45 -79 45 -201q0 -177 -133 -252q-118 -68 -338 -68q-42 0 -72 -30t-30 -72t30 -72t72 -30q275 0 441 94q235 134 235 430q0 132 -41 238q-37 95 -106 163q-95 92 -232 127 q-67 17 -121 17h-608q-42 0 -72 -30t-30 -73v-1405z" />
<glyph unicode="q" horiz-adv-x="2000" d="M174 680q-11 69 -11 135q0 100 25 195q41 167 142 297q100 131 241 213q144 84 306 108q66 11 132 11q100 0 201 -25q163 -41 295 -140t217 -243q85 -148 105 -299q10 -65 10 -128q0 -102 -25 -200q-46 -167 -141 -297q-93 -127 -235 -215q-26 -17 -62 -33 q116 -108 164 -290q4 -15 4 -29q0 -25 -14 -48q-21 -37 -62 -48q-14 -5 -28 -5q-11 0 -23 3q-59 17 -74 73q-45 160 -141 222q-51 36 -90 36h2v4q-52 -6 -103 -6q-103 0 -206 25q-163 40 -303 143q-130 100 -215 240q-87 144 -111 301zM377 713q18 -121 84 -228 q66 -110 167 -184.5t224 -105.5q76 -19 153 -19q47 0 93 7q124 19 231 85q102 60 178 162q78 109 107 223q19 78 19 155q0 45 -7 90q-17 123 -80 230q-63 108 -162.5 182t-222.5 105q-79 19 -159 19l-95 -7q-127 -22 -231 -84q-108 -62 -182 -161q-81 -105 -107 -221 q-18 -75 -18 -149q0 -50 8 -99z" />
<glyph unicode="r" horiz-adv-x="1644" d="M164 102q0 -42 30 -72t72 -30t72.5 30t30.5 72v1303h505q78 0 154 -43q60 -37 94 -94q45 -77 45 -203q0 -178 -131 -252q-121 -68 -338 -68q-40 0 -69.5 -26.5t-32.5 -65.5q-1 -7 -1 -14q-1 -31 19 -57q24 -32 64 -39q3 0 18.5 -5t47 -20.5t63.5 -36.5q154 -100 262 -284 q75 -132 199 -177q51 -16 94 -16q16 0 31 2q41 6 67 41q21 28 20 61q0 8 -1 15q-5 41 -39 66q-28 21 -62 21q-7 0 -14 -1q-66 0 -119 90q-92 165 -231 285q57 15 123 51q115 66 175 175.5t60 254.5q0 139 -41 238q-39 99 -106 163q-92 92 -230 127q-67 17 -121 17h-608 q-43 0 -72.5 -30t-29.5 -73v-1405z" />
<glyph unicode="s" horiz-adv-x="1478" d="M168 287q-4 -15 -4 -30q0 -25 12 -48q5 -10 13 -21.5t31.5 -35.5t51.5 -45.5t76 -47t104 -43t136.5 -29.5t171.5 -12q289 0 434 136q121 115 121 278q0 198 -133 328q-139 136 -432 194q-127 27 -207 80q-60 40 -94 94q-37 59 -37 119v4q0 83 69 146q81 73 219 73 q177 0 285 -55q38 -23 68 -53q20 -35 60 -46q14 -4 28 -4q25 0 49 13q37 20 48 61q4 15 4 29q0 26 -13 49q-7 13 -21 31.5t-56 52.5t-96.5 60t-149 46.5t-206.5 20.5q-110 0 -198 -33q-96 -37 -156 -92q-66 -59 -102.5 -136t-36.5 -159q0 -117 59 -219q55 -99 154 -166 q114 -77 289 -116q233 -46 329 -142q72 -69 72 -180q0 -77 -55 -127q-88 -82 -295 -82q-202 0 -328 68q-13 7 -24 14.5t-19 13.5t-14.5 12t-10 10t-6.5 8l-4 3q-20 35 -60 47q-15 4 -29 5q-25 0 -48 -13q-37 -20 -49 -61z" />
<glyph unicode="t" horiz-adv-x="1636" d="M164 1507q0 43 29.5 73t72.5 30h1104q43 0 73 -30t30 -73t-30 -72.5t-73 -29.5h-448v-1303q0 -42 -30.5 -72t-72.5 -30q-43 0 -72.5 29.5t-29.5 72.5v1303h-451q-43 0 -72.5 29.5t-29.5 72.5z" />
<glyph unicode="u" horiz-adv-x="1681" d="M164 653q0 -214 84 -370q77 -139 211 -215q159 -93 383 -93q102 0 189.5 19t149.5 48.5t113 71.5t83 82.5t57 86.5q84 154 84 370v854q0 42 -30.5 72.5t-72.5 30.5q-41 0 -71.5 -31t-30.5 -72v-854q0 -161 -60 -274q-46 -84 -131 -135q-112 -64 -280 -64q-169 0 -281 64 q-83 48 -133 137q-59 109 -59 272v854q0 42 -30.5 72.5t-72.5 30.5q-41 0 -71.5 -31t-30.5 -72v-854z" />
<glyph unicode="v" horiz-adv-x="1705" d="M172 1477l586 -1418q12 -29 38 -46t58 -17q31 0 56.5 17t37.5 46l586 1418q9 20 9 39t-8 38q-16 39 -56 56q-19 8 -38.5 8t-39.5 -8q-40 -17 -55 -56l-492 -1187l-492 1187q-18 39 -57 56q-20 8 -39 8l-39 -8q-38 -17 -54 -56q-8 -20 -8 -40q0 -19 7 -37z" />
<glyph unicode="w" horiz-adv-x="2600" d="M170 1479l518 -1418q10 -30 36.5 -48.5t59.5 -18.5q32 0 58.5 18t38.5 49l419 1153l422 -1153q10 -30 37 -48.5t60 -18.5t59.5 18.5t36.5 48.5l516 1418q7 18 7 36q0 21 -10 42q-18 38 -58 53q-18 6 -35 6q-21 0 -43 -10q-38 -18 -54 -58l-419 -1153l-422 1153 q-10 31 -37 49.5t-60 18.5q-32 0 -59 -18.5t-37 -49.5l-420 -1153l-422 1153q-15 40 -53 58q-21 10 -43 10q-17 0 -35 -6q-40 -15 -58 -53q-10 -21 -10 -42q0 -18 7 -36z" />
<glyph unicode="x" horiz-adv-x="1572" d="M165 85q-1 9 -1 18q0 32 20 59l478 661l-451 623q-21 28 -21 60q0 8 2 16q6 42 41 67q27 20 59 20q8 1 17 -1q42 -6 68 -41l411 -570l410 570q24 35 66 41q9 1 17 1q32 0 60 -20q34 -25 41 -67q2 -9 2 -17q0 -31 -20 -59l-451 -623l478 -661q20 -27 20 -59q0 -9 -2 -18 q-7 -42 -41 -67q-27 -18 -61 -18q-52 0 -82 41l-437 606l-438 -606q-30 -41 -84 -41q-32 0 -59 18q-35 25 -42 67z" />
<glyph unicode="y" horiz-adv-x="1632" d="M166 1526q8 42 43 67q26 17 56 17q10 0 21 -2q41 -8 64 -43l465 -699l467 699q23 35 64 43q11 2 21 2q30 0 56 -17q35 -25 43 -67q3 -11 3 -21q0 -29 -17 -55l-534 -799v-549q0 -42 -30 -72t-73 -30q-41 0 -71.5 30.5t-30.5 71.5v549l-533 799q-17 26 -17 55q0 10 3 21z " />
<glyph unicode="z" horiz-adv-x="1646" d="M172 61q29 -59 92 -59h1116q41 0 72 30.5t31 71.5q0 42 -30.5 72.5t-72.5 30.5h-903l983 1237q23 29 23 62q0 22 -10 46q-14 26 -39 42t-54 16h-1083q-41 0 -71.5 -30t-30.5 -73q0 -42 30 -72t72 -30h870l-983 -1235q-23 -29 -23 -62q0 -22 11 -47z" />
<glyph unicode="&#xa9;" horiz-adv-x="2160" d="M164 700q0 -184 72 -360q73 -172 196 -295q127 -130 291 -201q171 -71 358 -71q186 0 357 71q164 71 291 201q123 123 196 295q72 176 72 360q0 188 -72 361q-72 170 -196 297q-128 128 -291 198q-171 74 -357 74q-187 0 -358 -74q-164 -70 -291 -198 q-124 -127 -196 -297q-72 -173 -72 -361zM369 700q0 145 54.5 277.5t154.5 234.5q101 103 231 158t272 55q141 0 271 -55t231 -158q101 -101 155 -233.5t54 -278.5q0 -145 -54 -277t-155 -235q-101 -102 -230.5 -156.5t-271.5 -54.5q-143 0 -272.5 54t-230.5 157 q-100 103 -154.5 235.5t-54.5 276.5zM629 694q0 -192 135 -327q136 -136 328 -136q143 0 258 80q35 23 43 65t-17 77q-23 35 -64.5 43t-76.5 -15q-62 -45 -143 -45q-107 0 -182.5 76t-75.5 182t75.5 182t182.5 76q69 0 127 -34q37 -20 78 -9.5t63 47.5q20 37 9 77.5 t-48 62.5q-104 61 -229 61q-196 0 -328 -135q-135 -135 -135 -328z" />
<glyph unicode="&#xad;" d="M164 752q0 -42 30 -72.5t72 -30.5h473q42 0 72.5 30.5t30.5 72.5q0 43 -30 72.5t-73 29.5h-473q-43 0 -72.5 -29.5t-29.5 -72.5z" />
<glyph unicode="&#x2000;" horiz-adv-x="912" />
<glyph unicode="&#x2001;" horiz-adv-x="1825" />
<glyph unicode="&#x2002;" horiz-adv-x="912" />
<glyph unicode="&#x2003;" horiz-adv-x="1825" />
<glyph unicode="&#x2004;" horiz-adv-x="608" />
<glyph unicode="&#x2005;" horiz-adv-x="456" />
<glyph unicode="&#x2006;" horiz-adv-x="304" />
<glyph unicode="&#x2007;" horiz-adv-x="304" />
<glyph unicode="&#x2008;" horiz-adv-x="228" />
<glyph unicode="&#x2009;" horiz-adv-x="365" />
<glyph unicode="&#x200a;" horiz-adv-x="101" />
<glyph unicode="&#x2010;" d="M164 752q0 -42 30 -72.5t72 -30.5h473q42 0 72.5 30.5t30.5 72.5q0 43 -30 72.5t-73 29.5h-473q-43 0 -72.5 -29.5t-29.5 -72.5z" />
<glyph unicode="&#x2011;" d="M164 752q0 -42 30 -72.5t72 -30.5h473q42 0 72.5 30.5t30.5 72.5q0 43 -30 72.5t-73 29.5h-473q-43 0 -72.5 -29.5t-29.5 -72.5z" />
<glyph unicode="&#x2012;" d="M164 752q0 -42 30 -72.5t72 -30.5h473q42 0 72.5 30.5t30.5 72.5q0 43 -30 72.5t-73 29.5h-473q-43 0 -72.5 -29.5t-29.5 -72.5z" />
<glyph unicode="&#x2013;" horiz-adv-x="1351" d="M164 752q0 -42 45.5 -72.5t108.5 -30.5h714q64 0 110 30.5t46 72.5q0 43 -45.5 72.5t-110.5 29.5h-714q-65 0 -109.5 -29.5t-44.5 -72.5z" />
<glyph unicode="&#x2014;" horiz-adv-x="2375" d="M164 752q0 -42 90.5 -72.5t217.5 -30.5h1429q127 0 219 30.5t92 72.5q0 43 -90.5 72.5t-220.5 29.5h-1429q-130 0 -219 -29.5t-89 -72.5z" />
<glyph unicode="&#x202f;" horiz-adv-x="365" />
<glyph unicode="&#x205f;" horiz-adv-x="456" />
<glyph unicode="&#x25fc;" horiz-adv-x="1607" d="M0 0v1608h1608v-1608h-1608z" />
</font>
</defs>
</svg>
